<mxfile host="app.diagrams.net" modified="2023-08-30T12:07:38.118Z" agent="Mozilla/5.0 (Macintosh; Intel Mac OS X 10_15_7) AppleWebKit/537.36 (KHTML, like Gecko) Chrome/116.0.0.0 Safari/537.36" version="21.7.0" etag="tYvcP2wMGZ0m2qdWAVLm" type="github">
  <diagram name="Page-1" id="kKcn9XIOLiseuPJuVKMN">
    <mxGraphModel>
      <root>
        <mxCell id="0" />
        <mxCell id="1" parent="0" />
      </root>
    </mxGraphModel>
  </diagram>
</mxfile>
